<?xml version="1.0" standalone="no"?>
<!DOCTYPE svg PUBLIC "-//W3C//DTD SVG 20010904//EN"
 "http://www.w3.org/TR/2001/REC-SVG-20010904/DTD/svg10.dtd">
<svg version="1.0" xmlns="http://www.w3.org/2000/svg"
 width="700.000000pt" height="700.000000pt" viewBox="0 0 700.000000 700.000000"
 preserveAspectRatio="xMidYMid meet">
<metadata>
Created by potrace 1.11, written by Peter Selinger 2001-2013
</metadata>
<g transform="translate(0.000000,700.000000) scale(0.100000,-0.100000)"
fill="#000000" stroke="none">
<path d="M1267 6174 c-1 -1 -31 -5 -67 -8 -265 -27 -526 -154 -725 -351 -83
-82 -179 -211 -227 -304 -58 -112 -112 -276 -124 -381 -3 -25 -7 -56 -10 -70
-7 -38 -6 -2139 1 -2185 64 -415 260 -715 602 -923 116 -70 267 -126 434 -159
19 -4 1094 -8 2389 -10 2435 -2 2412 -2 2560 35 209 53 403 165 565 327 154
154 261 333 315 528 19 69 20 108 20 1306 0 1219 0 1236 -21 1310 -20 74 -127
307 -152 333 -7 7 -28 34 -45 60 -52 76 -190 208 -287 274 -151 103 -307 167
-485 201 -76 14 -320 16 -2413 17 -1281 1 -2329 1 -2330 0z m3123 -234 c1 -19
1 -385 1 -812 0 -428 3 -778 7 -778 4 1 19 20 34 43 114 177 367 362 603 441
270 90 588 74 810 -42 88 -46 208 -163 252 -247 76 -145 120 -332 118 -505 -1
-25 -2 -478 -3 -1006 l-2 -962 -225 1 c-124 0 -225 2 -226 6 0 3 -2 443 -3
976 -2 856 -5 979 -19 1044 -44 199 -163 324 -341 361 -64 13 -199 17 -256 7
-94 -17 -217 -73 -301 -138 -158 -123 -285 -304 -356 -509 -80 -227 -90 -344
-91 -1025 -1 -308 -1 -597 -1 -641 l-1 -81 -225 0 -225 -1 0 1952 0 1951 225
0 225 0 0 -35z m-1344 -1912 c0 -1061 -2 -1929 -5 -1929 -3 -1 -106 -2 -228
-3 l-223 -1 0 183 0 184 -49 -59 c-56 -67 -70 -79 -166 -148 -114 -81 -257
-145 -405 -181 -107 -26 -355 -26 -494 0 -57 11 -163 37 -181 45 -11 5 -50 21
-87 36 -236 95 -445 301 -567 558 -37 78 -86 214 -96 265 -2 13 -6 31 -9 40
-6 20 -15 64 -21 107 -2 17 -9 59 -14 95 -10 65 -8 483 2 530 3 14 8 41 11 60
44 290 172 555 355 740 178 180 382 279 666 326 63 10 324 13 359 3 17 -4 49
-10 71 -13 74 -9 179 -45 282 -96 120 -61 173 -99 271 -196 l72 -73 0 728 0
729 228 -2 227 -1 1 -1927z"/>
<path d="M1695 4468 c-449 -45 -732 -425 -737 -990 -4 -434 173 -786 469 -932
138 -68 280 -90 472 -72 383 36 667 358 717 816 13 118 6 412 -11 439 -2 4 -6
22 -9 41 -9 58 -46 171 -79 240 -129 271 -350 433 -620 456 -111 10 -121 10
-202 2z"/>
</g>
</svg>
